<svg width="30" height="30" viewBox="0 0 30 30" fill="none" xmlns="http://www.w3.org/2000/svg">
<path d="M27.1875 9.375C26.9389 9.375 26.7004 9.47377 26.5246 9.64959C26.3488 9.8254 26.25 10.0639 26.25 10.3125V25.3125C26.25 25.5611 26.1512 25.7996 25.9754 25.9754C25.7996 26.1512 25.5611 26.25 25.3125 26.25H4.6875C4.43886 26.25 4.2004 26.1512 4.02459 25.9754C3.84877 25.7996 3.75 25.5611 3.75 25.3125V4.6875C3.75 4.43886 3.84877 4.2004 4.02459 4.02459C4.2004 3.84877 4.43886 3.75 4.6875 3.75H19.6875C19.9361 3.75 20.1746 3.65123 20.3504 3.47541C20.5262 3.2996 20.625 3.06114 20.625 2.8125C20.625 2.56386 20.5262 2.3254 20.3504 2.14959C20.1746 1.97377 19.9361 1.875 19.6875 1.875H4.6875C3.94158 1.875 3.22621 2.17132 2.69876 2.69876C2.17132 3.22621 1.875 3.94158 1.875 4.6875V25.3125C1.875 26.0584 2.17132 26.7738 2.69876 27.3012C3.22621 27.8287 3.94158 28.125 4.6875 28.125H25.3125C26.0584 28.125 26.7738 27.8287 27.3012 27.3012C27.8287 26.7738 28.125 26.0584 28.125 25.3125V10.3125C28.125 10.0639 28.0262 9.8254 27.8504 9.64959C27.6746 9.47377 27.4361 9.375 27.1875 9.375Z" fill="#F5CB5C"/>
<path d="M8.16555 10.5844C7.98902 10.4079 7.74959 10.3087 7.49993 10.3087C7.25027 10.3087 7.01084 10.4079 6.8343 10.5844C6.65777 10.7609 6.55859 11.0004 6.55859 11.25C6.55859 11.3737 6.58294 11.4961 6.63025 11.6103C6.67756 11.7245 6.74689 11.8283 6.8343 11.9157L14.3343 19.4157C14.4219 19.5025 14.5258 19.5713 14.64 19.6179C14.7542 19.6646 14.8765 19.6882 14.9999 19.6875H15.0656C15.1975 19.6777 15.3259 19.64 15.4422 19.577C15.5585 19.514 15.6602 19.427 15.7406 19.3219L27.9281 3.38441C28.062 3.1869 28.1155 2.94575 28.0778 2.71011C28.0401 2.47447 27.914 2.26209 27.7251 2.11624C27.5362 1.9704 27.2988 1.90207 27.0613 1.92519C26.8238 1.94831 26.604 2.06113 26.4468 2.24066L14.9062 17.3344L8.16555 10.5844Z" fill="#F5CB5C"/>
</svg>
