<svg width="47" height="47" viewBox="0 0 47 47" fill="none" xmlns="http://www.w3.org/2000/svg">
<path d="M44.7046 46.9996C45.1586 46.9997 45.6024 46.8651 45.9799 46.6129C46.3573 46.3608 46.6516 46.0023 46.8253 45.5829C46.999 45.1635 47.0445 44.702 46.9559 44.2568C46.8673 43.8116 46.6487 43.4026 46.3276 43.0817L3.91746 0.671523C3.48702 0.241085 2.90322 -0.000732422 2.29449 -0.000732422C1.68576 -0.000732422 1.10196 0.241085 0.671525 0.671523C0.241087 1.10196 -0.000733972 1.68576 -0.000733972 2.29449C-0.000733972 2.90322 0.241087 3.48702 0.671525 3.91746L43.0817 46.3276C43.2946 46.541 43.5476 46.7102 43.8261 46.8255C44.1046 46.9408 44.4032 47 44.7046 46.9996Z" fill="#F5CB5C"/>
<path d="M2.29462 46.9996C2.59607 47 2.89462 46.9408 3.17314 46.8255C3.45166 46.7102 3.70465 46.541 3.91759 46.3276L46.3277 3.91746C46.7582 3.48702 47 2.90322 47 2.29449C47 1.68576 46.7582 1.10196 46.3277 0.671523C45.8973 0.241085 45.3135 -0.000732422 44.7048 -0.000732422C44.096 -0.000732422 43.5122 0.241085 43.0818 0.671523L0.671651 43.0817C0.350614 43.4026 0.131974 43.8116 0.0433884 44.2568C-0.0451971 44.702 0.000252423 45.1635 0.173985 45.5829C0.347717 46.0023 0.641929 46.3608 1.01941 46.6129C1.39688 46.8651 1.84066 46.9997 2.29462 46.9996Z" fill="#F5CB5C"/>
</svg>
